<?xml version="1.0" encoding="utf-8"?>
<!-- Generator: Adobe Illustrator 25.0.1, SVG Export Plug-In . SVG Version: 6.00 Build 0)  -->
<svg version="1.1" id="圖層_1" xmlns="http://www.w3.org/2000/svg" xmlns:xlink="http://www.w3.org/1999/xlink" x="0px" y="0px"
	 viewBox="0 0 595.28 189.89" style="enable-background:new 0 0 595.28 189.89;" xml:space="preserve">
<style type="text/css">
	.st0{fill:none;}
	.st1{fill:#FFFFFF;}
	.st2{fill:#57B8B4;}
</style>
<line class="st0" x1="103.73" y1="428.57" x2="103.73" y2="-413.32"/>
<path d="M175.73,511.25"/>
<path d="M175.73-330.64"/>
<line class="st0" x1="103.73" y1="428.57" x2="103.73" y2="-413.32"/>
<line class="st0" x1="103.73" y1="-413.32" x2="103.73" y2="428.57"/>
<line class="st0" x1="103.73" y1="428.57" x2="103.73" y2="-413.32"/>
<g>
	<path class="st1" d="M441.94,51.2c1.2,0,2.18,0.98,2.18,2.18v76.44c-0.02,12.24-9.32,11.13-18.79,10.59c-1.7-0.1-3.08-1.4-3.27-3.1
		c0-0.03-0.01-0.07-0.01-0.1c-0.25-2.2,1.61-4.08,3.82-3.86c2.56,0.25,4.61,0.38,6.15,0.38c3.65,0,5.47-1.59,5.47-4.78V95.15V75.72
		V57.85h-14.16h-18.16h-12.89v17.87v6.44v12.99v6.54v37.41c0,1.29-1.05,2.34-2.34,2.34h-1.95c-1.29,0-2.34-1.05-2.34-2.34v-30.77
		V66.34V53.98c0-1.53,1.24-2.78,2.78-2.78H441.94z"/>
	<path class="st1" d="M434.65,97.69v1.46c0,1.4-1.14,2.54-2.54,2.54H409.8c-0.94,0-1.71,0.77-1.71,1.71v10.91
		c0,1.55,1.26,2.81,2.81,2.81h17.95c1.7,0,3.08,1.38,3.08,3.08v0.3c0,1.7-1.38,3.08-3.08,3.08h-24.59c-1.55,0-2.81-1.26-2.81-2.81
		v-16.7c0-1.31-1.06-2.38-2.38-2.38h-1.7c-1.31,0-2.38-1.06-2.38-2.38v-1.79c0-1.31,1.06-2.38,2.38-2.38h16.67h18.06
		C433.52,95.15,434.65,96.29,434.65,97.69"/>
	<path class="st1" d="M434.65,78.08v1.72c0,1.3-1.06,2.36-2.36,2.36h-17.27h-17.56c-1.3,0-2.36-1.06-2.36-2.36v-1.72
		c0-1.3,1.06-2.36,2.36-2.36h8.68h8.16c0.87,0,1.67-0.48,2.08-1.24c2.58-4.77,4.57-8.71,5.98-11.8c0.55-1.2,1.97-1.71,3.16-1.14
		l2.03,0.97c1.25,0.6,1.72,2.13,1.02,3.32c-1.22,2.06-2.48,4.16-3.8,6.3c-0.96,1.57,0.16,3.6,2.01,3.6h5.51
		C433.6,75.72,434.65,76.78,434.65,78.08"/>
	<path class="st1" d="M417.64,93.39l-1.21,0.52c-1.29,0.56-2.79-0.04-3.34-1.33c-0.84-1.99-1.73-3.84-2.65-5.57
		c-0.56-1.05-0.1-2.35,0.99-2.82l1.9-0.82c0.97-0.42,2.09-0.04,2.59,0.88c0.82,1.49,1.8,3.37,2.96,5.65
		C419.55,91.22,418.98,92.81,417.64,93.39"/>
	<path class="st1" d="M410.22,73.12l-2.09,1.12c-1.1,0.58-2.46,0.15-3-0.97c-1.24-2.6-2.73-5.23-4.45-7.92
		c-0.7-1.1-0.29-2.56,0.88-3.14l1.81-0.89c0.99-0.49,2.18-0.16,2.8,0.76c2.01,3.01,3.66,5.7,4.94,8.07
		C411.7,71.22,411.28,72.55,410.22,73.12"/>
	<path class="st1" d="M381.57,109.21l-0.54,0.18c-1.64,0.54-3.39-0.42-3.83-2.08c-0.12-0.44-0.24-0.88-0.36-1.32
		c-8.11,0.87-14.62,1.75-19.54,2.65c-2.14,0.39-4.19-0.97-4.67-3.09l-0.33-1.48c-0.28-1.27,0.05-2.6,0.92-3.57
		c4.17-4.62,8.4-10.5,12.67-17.65c-4.1,0.23-7.48,0.56-10.14,0.97c-1.54,0.24-3.02-0.69-3.49-2.18l-0.73-2.31
		c-0.29-0.91-0.16-1.9,0.37-2.69c4.15-6.23,8.59-15.24,13.33-27.02c0.71-1.77,2.71-2.67,4.51-2.01c1.98,0.72,2.89,3.01,1.96,4.9
		c-5.12,10.44-9.31,18.5-12.53,24.19c2.41,0,5.86-0.06,10.35-0.19c1.87-3.42,3.74-7.06,5.61-10.91c0.68-1.4,2.37-1.99,3.76-1.28
		l1.39,0.7c1.42,0.72,1.95,2.49,1.15,3.87c-6.35,10.98-13.12,21.78-20.31,32.42c4.49-0.45,9.18-0.94,14.06-1.46
		c-0.73-2.52-1.46-5.01-2.2-7.48c-0.3-1,0.27-2.05,1.26-2.36l2.12-0.66c0.98-0.3,2.02,0.22,2.37,1.18
		c1.88,5.24,3.48,10.25,4.79,15.02C383.95,107.1,383.1,108.71,381.57,109.21"/>
	<path class="st1" d="M384.07,130.99l-6.25,1.56c-1.09-6.6-2.19-11.97-3.28-16.09c-0.23-0.87,0.3-1.76,1.18-1.97l2.18-0.52
		c0.83-0.2,1.68,0.29,1.93,1.12C381.51,120.83,382.93,126.13,384.07,130.99"/>
	<path class="st1" d="M370.71,136.05l-2.63,0.47c-1,0.18-1.92-0.55-1.98-1.56c-0.23-4.08-0.72-9.34-1.47-15.77
		c-0.16-1.36,0.79-2.61,2.15-2.82l0.24-0.04c1.38-0.21,2.68,0.74,2.9,2.13c0.98,6.14,1.7,11.39,2.17,15.75
		C372.18,135.09,371.58,135.89,370.71,136.05"/>
	<path class="st1" d="M356.83,116.77l2.75,0.54c0.86,0.17,1.43,1,1.28,1.86c-1.13,6.69-2.46,12.81-4,18.37
		c-0.28,1.02-1.36,1.61-2.38,1.3l-2.45-0.73c-1.04-0.31-1.62-1.42-1.27-2.44c1.79-5.09,3.17-10.93,4.16-17.54
		C355.06,117.21,355.92,116.59,356.83,116.77"/>
	<path class="st1" d="M246.57,60L246.57,60c0,1.89-1.53,3.42-3.42,3.42h-63.21c-4.14,0-7.48,3.37-7.44,7.51
		c0.23,23.67,0.47,48.89-10.51,67.04c-1.4,2.32-4.67,2.6-6.5,0.61l-0.06-0.06c-1.29-1.4-1.42-3.48-0.38-5.07
		c5.1-7.82,8.23-17.68,9.4-29.59c-2.1,1.38-4.56,2.92-7.36,4.62c-2.28,1.39-5.25,0.13-5.83-2.47c-0.39-1.77,0.49-3.57,2.12-4.36
		c4.81-2.32,8.7-4.42,11.66-6.28V61.59c0-2.77,2.24-5.01,5.01-5.01h32c-0.76-1.29-1.52-2.55-2.28-3.79
		c-1.18-1.91-0.46-4.42,1.55-5.42c1.76-0.88,3.91-0.28,4.96,1.39c1.31,2.09,2.9,4.69,4.76,7.82h32.13
		C245.04,56.58,246.57,58.11,246.57,60"/>
	<path class="st1" d="M244.79,138.7c-0.05,0.1-0.1,0.21-0.14,0.31c-0.74,1.59-2.44,2.49-4.17,2.25
		c-12.15-1.65-22.58-4.97-31.29-9.96c-0.01-0.01-0.03-0.01-0.04,0c-8.77,4.81-19.02,8.34-30.74,10.6c-1.71,0.33-3.44-0.46-4.29-1.98
		c-1.3-2.36,0.1-5.27,2.74-5.78c9.37-1.8,17.68-4.34,24.92-7.59c0.03-0.01,0.03-0.05,0.01-0.07c-6.42-5.01-11.61-11.17-15.56-18.5
		c-0.01-0.01-0.02-0.02-0.04-0.02h-3.29c-1.19,0-2.16-0.97-2.16-2.16v-2.33c0-1.19,0.96-2.16,2.16-2.16h48.46
		c2.19,0,3.97,1.78,3.97,3.97v0.88c0,0.79-0.23,1.56-0.66,2.22c-4.76,7.09-10.7,13.15-17.82,18.19c-0.03,0.02-0.02,0.06,0.01,0.07
		c7.14,3.18,15.4,5.31,24.79,6.38C244.36,133.32,245.95,136.22,244.79,138.7 M223.02,107.94h-26.43c-0.81,0-1.27,0.92-0.8,1.58
		c3.19,4.49,7.03,8.35,11.52,11.57c1.23,0.88,2.88,0.91,4.14,0.08c4.84-3.18,9.04-6.82,12.62-10.94
		C224.85,109.34,224.2,107.94,223.02,107.94"/>
	<path class="st1" d="M236.1,75.89c0,4.6-7.19,13.39-7.92,14.25c-1.13,2.47-2.35,4.62-2.97,5.11c-3.47,2.71-11.57,4.6-16.64,4.6
		c-5.06,0-13.13-1.89-16.63-4.6c-0.62-0.49-1.79-2.59-2.88-5.05c-0.32-0.4-7.96-9.57-7.96-14.31c0.12-4.68,3.14-6.4,6.69-5.88
		c2.57,0.56,4.2,2.96,4.87,4.18c15.73-4.85,16.3-4.47,31.89-0.01c0,0,2.29-3.61,4.87-4.18C232.97,69.5,235.98,71.21,236.1,75.89
		 M230.25,84.76c2.88-4.32,6.47-9.84,2.15-13.08c-0.71-0.43-1.63-0.58-2.5-0.41c-1.84,0.4-3.25,2.41-3.85,3.56
		c2.71,1.6,4.7,5.09,4.63,7.65C230.62,83.25,230.48,84.01,230.25,84.76 M228.95,82.46c0.1-2.49-2.02-5.67-4.29-6.77
		c-0.04-0.02-0.08-0.04-0.11-0.05c-5-1.29-10.87-3.61-15.95-3.69c-3.68,0-8.16,1.34-11.71,2.41c-1.25,0.38-2.4,0.73-3.39,0.98
		c-2.61,0.67-5.19,4-5.19,6.73c0,3.08,4.03,11.58,4.89,12.27c2.84,2.21,10.18,4.22,15.4,4.22c5.16,0,12.63-2.05,15.4-4.21
		C224.82,93.69,228.88,85.46,228.95,82.46 M191.18,74.84c-0.63-1.16-2.04-3.18-3.87-3.57c-0.87-0.17-1.79-0.02-2.5,0.41
		c-1.28,0.74-1.99,2.24-1.99,4.21c0,2.37,2.25,6.15,4.34,9.13c-0.31-0.97-0.5-1.96-0.56-2.95C186.6,79.35,188.63,76.32,191.18,74.84
		"/>
	<path class="st2" d="M224.66,75.69c2.27,1.1,4.39,4.28,4.29,6.77c-0.07,3-4.13,11.23-4.95,11.89c-2.77,2.16-10.24,4.21-15.4,4.21
		c-5.22,0-12.56-2.01-15.4-4.22c-0.86-0.69-4.89-9.19-4.89-12.27c0-2.73,2.58-6.06,5.19-6.73c0.99-0.25,2.14-0.6,3.39-0.98
		c3.55-1.07,8.03-2.41,11.71-2.41c5.08,0.08,10.95,2.4,15.95,3.69C224.58,75.65,224.62,75.67,224.66,75.69 M218.21,80.35
		c1.15-0.19,0.74-1.46-0.31-1.29c-0.06,0-6.44,0.9-9.3,0.9c-2.85,0-9.23-0.89-9.29-0.9c-1.04-0.16-1.48,1.1-0.31,1.3
		c0.27,0.03,6.6,0.9,9.6,0.9C211.61,81.26,217.94,80.39,218.21,80.35 M218.21,84.62c1.15-0.19,0.74-1.46-0.31-1.29
		c-0.06,0-6.44,0.9-9.3,0.9c-2.85,0-9.23-0.89-9.29-0.9c-1.04-0.16-1.48,1.1-0.31,1.3c0.27,0.03,6.6,0.9,9.6,0.9
		C211.61,85.53,217.94,84.66,218.21,84.62 M218.21,88.89c1.15-0.19,0.74-1.46-0.31-1.29c-0.06,0-6.44,0.9-9.3,0.9
		c-2.85,0-9.23-0.89-9.29-0.9c-1.04-0.16-1.48,1.1-0.31,1.3c0.27,0.03,6.6,0.9,9.6,0.9C211.61,89.8,217.94,88.93,218.21,88.89"/>
	<path class="st1" d="M217.9,79.06c1.05-0.17,1.46,1.1,0.31,1.29c-0.27,0.04-6.6,0.91-9.61,0.91c-3,0-9.33-0.87-9.6-0.9
		c-1.17-0.2-0.73-1.46,0.31-1.3c0.06,0.01,6.44,0.9,9.29,0.9C211.46,79.96,217.84,79.06,217.9,79.06"/>
	<path class="st1" d="M217.9,83.33c1.05-0.17,1.46,1.1,0.31,1.29c-0.27,0.04-6.6,0.91-9.61,0.91c-3,0-9.33-0.87-9.6-0.9
		c-1.17-0.2-0.73-1.46,0.31-1.3c0.06,0.01,6.44,0.9,9.29,0.9C211.46,84.23,217.84,83.33,217.9,83.33"/>
	<path class="st1" d="M217.9,87.6c1.05-0.17,1.46,1.1,0.31,1.29c-0.27,0.04-6.6,0.91-9.61,0.91c-3,0-9.33-0.87-9.6-0.9
		c-1.17-0.2-0.73-1.46,0.31-1.3c0.06,0.01,6.44,0.9,9.29,0.9C211.46,88.5,217.84,87.6,217.9,87.6"/>
	<path class="st1" d="M160.92,87.41L160.92,87.41c-1.88,0.74-4.01-0.27-4.61-2.2c-1.35-4.3-2.77-8.37-4.26-12.21
		c-0.64-1.65,0.17-3.51,1.81-4.18c1.66-0.68,3.55,0.09,4.25,1.74c1.58,3.7,3.18,7.83,4.82,12.41
		C163.56,84.75,162.68,86.72,160.92,87.41"/>
	<g>
		<path class="st1" d="M256.41,68.18c2.6,0,3.9,1.3,3.9,3.9c0,9.56-0.55,18.5-1.66,26.82c-0.46,2.6-2.02,3.9-4.68,3.9
			c-2.02,0-3.02-1.04-3.02-3.12c0-1.04,0.13-2.05,0.39-3.02c1.1-6.83,1.72-15.31,1.85-25.45C253.25,69.19,254.33,68.18,256.41,68.18
			z M268.11,47.89c2.6,0,3.9,1.3,3.9,3.9v84.55c0,2.6-1.3,3.9-3.9,3.9c-2.6,0-3.9-1.3-3.9-3.9V51.79
			C264.21,49.2,265.51,47.89,268.11,47.89z M278.93,66.91c1.69,0,2.86,0.68,3.51,2.05c0.39,2.21,0.75,5.17,1.07,8.87h24.67v-5.75
			h-17.94c-2.34,0-3.51-1.17-3.51-3.51c0-2.34,1.17-3.51,3.51-3.51h17.94v-5.07h-20.67c-2.28,0-3.41-1.17-3.41-3.51
			c0-2.4,1.14-3.61,3.41-3.61h20.67V51.4c0-2.6,1.3-3.9,3.9-3.9c2.6,0,3.9,1.3,3.9,3.9v1.46h23.89c2.34,0,3.51,1.2,3.51,3.61
			c0,2.34-1.17,3.51-3.51,3.51h-23.89v5.07h19.6c2.34,0,3.51,1.17,3.51,3.51c0,2.34-1.17,3.51-3.51,3.51h-19.6v5.75h26.13
			c2.34,0,3.51,1.2,3.51,3.61c0,2.6-1.17,3.9-3.51,3.9H284.2v0.19c0.2,1.5,0.29,2.6,0.29,3.32c0,2.02-1.17,3.02-3.51,3.02
			c-2.21,0-3.38-1.01-3.51-3.02c-0.39-6.96-0.88-12.84-1.46-17.65l-0.1-1.56C275.91,67.82,276.92,66.91,278.93,66.91z M293.46,91.09
			h39.69c4.68,0,7.02,2.24,7.02,6.73v31.5c0,6.83-3.64,10.24-10.92,10.24c-3.19,0-6.92-0.55-11.21-1.66
			c-1.89-0.72-2.83-1.85-2.83-3.41c0-2.86,1.07-4.29,3.22-4.29c0.65,0,1.43,0.1,2.34,0.29c3.32,0.84,5.88,1.27,7.7,1.27
			c2.6,0,3.9-1.56,3.9-4.68v-3.9h-38.91v13.17c0,2.6-1.3,3.9-3.9,3.9c-2.6,0-3.9-1.3-3.9-3.9V97.82
			C285.66,93.34,288.26,91.09,293.46,91.09z M293.46,103.58h38.91v-2.24c0-1.88-0.49-2.83-1.46-2.83h-35.98
			c-0.98,0-1.46,0.94-1.46,2.83V103.58z M293.46,116.06h38.91v-5.36h-38.91V116.06z"/>
	</g>
</g>
</svg>
