<?xml version="1.0" encoding="utf-8"?>
<!-- Generator: Adobe Illustrator 25.0.1, SVG Export Plug-In . SVG Version: 6.00 Build 0)  -->
<svg version="1.1" xmlns="http://www.w3.org/2000/svg" xmlns:xlink="http://www.w3.org/1999/xlink" x="0px" y="0px"
	 viewBox="0 0 509.54 159.82" style="enable-background:new 0 0 509.54 159.82;" xml:space="preserve">
<style type="text/css">
	.st0{display:none;}
	.st1{display:inline;}
	.st2{fill:#FFFFFF;}
	.st3{fill:#57B8B4;}
	.st4{fill:#EEB35C;}
	.st5{fill:#FFFFFF;stroke:#FFFFFF;stroke-width:3.5;stroke-linecap:round;stroke-miterlimit:10;}
</style>
<g id="圖層_2" class="st0">
	<rect x="-66.46" y="-17.41" class="st1" width="614.77" height="314.11"/>
</g>
<g id="圖層_1">
	<path class="st2" d="M452.77,121.45L452.77,121.45c0,1.67-1.35,3.03-3.02,3.03h-89.95c-1.67,0-3.03-1.35-3.03-3.02v0
		c0-1.67,1.35-3.02,3.03-3.02h5.38c1.67,0,3.02-1.35,3.02-3.03v-13.67c0-1.35,1.1-2.45,2.45-2.45h22.06h22.85h23.14
		c1.35,0,2.45,1.1,2.45,2.45v13.67c0,1.67,1.35,3.03,3.02,3.03h5.57C451.41,118.42,452.77,119.78,452.77,121.45z M433.73,115.4
		v-6.12c0-2.18-1.76-3.94-3.94-3.94h-6.67c-2.18,0-3.94,1.76-3.94,3.94v6.12c0,1.67,1.35,3.03,3.02,3.03h8.5
		C432.37,118.42,433.73,117.07,433.73,115.4z M411.95,115.4v-6.12c0-2.18-1.76-3.94-3.94-3.94h-6.67c-2.18,0-3.94,1.76-3.94,3.94
		v6.12c0,1.67,1.35,3.03,3.02,3.03h8.5C410.59,118.42,411.95,117.07,411.95,115.4z M390.17,115.4v-6.12c0-2.18-1.76-3.94-3.94-3.94
		h-6.67c-2.18,0-3.94,1.76-3.94,3.94v6.12c0,1.67,1.35,3.03,3.02,3.03h8.5C388.81,118.42,390.17,117.07,390.17,115.4z"/>
	<path class="st2" d="M452.77,54.01v3.03c0,0.83-0.68,1.51-1.51,1.51h-7.82c-0.83,0-1.51,0.68-1.51,1.51v13.19
		c0,0.83-0.68,1.51-1.51,1.51h-3.81c-0.83,0-1.51-0.68-1.51-1.51v0c0-0.83-0.68-1.51-1.51-1.51h-23.94c-0.83,0-1.51,0.68-1.51,1.51
		v3.62c0,0.83,0.68,1.51,1.51,1.51h39.27c0.83,0,1.51,0.68,1.51,1.51v0c0,2.51-2.03,4.54-4.54,4.54h-7.87h-22.46H393.4h-22.95h-10.5
		c-0.83,0-1.51-0.68-1.51-1.51v-3.03c0-0.83,0.68-1.51,1.51-1.51h39.85c0.83,0,1.51-0.68,1.51-1.51v-3.62
		c0-0.83-0.68-1.51-1.51-1.51h-35.56c-0.83,0-1.51-0.68-1.51-1.51v-2.84c0-0.83,0.68-1.51,1.51-1.51h35.56
		c0.83,0,1.51-0.68,1.51-1.51v-4.31c0-0.83-0.68-1.51-1.51-1.51h-41.61c-0.83,0-1.51-0.68-1.51-1.51v-3.03
		c0-0.83,0.68-1.51,1.51-1.51h41.61c0.83,0,1.51-0.68,1.51-1.51v-4.21c0-0.83-0.68-1.51-1.51-1.51h-35.27
		c-0.83,0-1.51-0.68-1.51-1.51v-2.84c0-0.83,0.68-1.51,1.51-1.51h35.27c0.83,0,1.51-0.68,1.51-1.51v-4.59
		c0-0.83,0.68-1.51,1.51-1.51h3.81c0.83,0,1.51,0.68,1.51,1.51v4.59c0,0.83,0.68,1.51,1.51,1.51h30.77c0.83,0,1.51,0.68,1.51,1.51
		v10.07c0,0.83,0.68,1.51,1.51,1.51h7.82C452.09,52.5,452.77,53.18,452.77,54.01z M435.1,64.37v-4.31c0-0.83-0.68-1.51-1.51-1.51
		h-23.94c-0.83,0-1.51,0.68-1.51,1.51v4.31c0,0.83,0.68,1.51,1.51,1.51h23.94C434.42,65.88,435.1,65.21,435.1,64.37z M435.1,50.99
		v-4.21c0-0.83-0.68-1.51-1.51-1.51h-23.94c-0.83,0-1.51,0.68-1.51,1.51v4.21c0,0.83,0.68,1.51,1.51,1.51h23.94
		C434.42,52.5,435.1,51.83,435.1,50.99z"/>
	<path class="st2" d="M446.67,98.31l-1.91,1.31c-1.07,0.73-2.53,0.5-3.32-0.52l-0.01-0.02c-1.9-2.51-4.1-5.18-6.6-8.01
		c-1.23-1.39-0.94-3.54,0.61-4.55l0.49-0.32c1.22-0.8,2.84-0.62,3.85,0.44c2.49,2.61,4.94,5.29,7.37,8.02
		C448.1,95.76,447.88,97.48,446.67,98.31z"/>
	<path class="st2" d="M419.86,96.5l-2.18,0.97c-1.18,0.52-2.56,0.04-3.16-1.1c-1.11-2.13-2.21-4.1-3.3-5.91
		c-0.93-1.55-0.28-3.57,1.38-4.31l0.7-0.31c1.33-0.59,2.9-0.16,3.72,1.04c1.14,1.66,2.45,3.7,3.93,6.11
		C421.72,94.24,421.21,95.9,419.86,96.5z"/>
	<path class="st2" d="M397.19,96.79l-2.32,0.93c-1.21,0.49-2.58-0.06-3.13-1.24c-1.05-2.24-2.04-4.25-2.98-6
		c-0.87-1.61-0.14-3.62,1.57-4.28l0.78-0.3c1.35-0.52,2.87-0.02,3.64,1.2c1.19,1.88,2.41,3.95,3.67,6.22
		C399.13,94.61,398.56,96.24,397.19,96.79z"/>
	<path class="st2" d="M371.92,85.64l2.28,1.56c0.96,0.66,1.14,2.02,0.36,2.89c-2.45,2.76-4.95,5.46-7.5,8.11
		c-0.57,0.6-1.15,1.2-1.73,1.79c-0.9,0.92-2.37,0.97-3.35,0.12l-1.47-1.28c-1.1-0.95-1.12-2.65-0.05-3.64
		c3.56-3.31,6.52-6.37,8.9-9.21C369.99,85.22,371.1,85.08,371.92,85.64z"/>
	<path class="st2" d="M247.56,37.26c1.2,0,2.18,0.98,2.18,2.18v76.44c-0.02,12.25-9.32,11.13-18.79,10.59
		c-1.7-0.1-3.08-1.4-3.27-3.1c0-0.03-0.01-0.07-0.01-0.1c-0.25-2.2,1.61-4.08,3.82-3.86c2.56,0.25,4.61,0.38,6.15,0.38
		c3.65,0,5.47-1.59,5.47-4.78V81.21V61.78V43.91h-14.16h-18.16h-12.89v17.87v6.44v12.99v6.54v37.41c0,1.29-1.05,2.34-2.34,2.34
		h-1.95c-1.29,0-2.34-1.05-2.34-2.34V94.39V52.4V40.04c0-1.53,1.24-2.78,2.78-2.78H247.56z"/>
	<path class="st2" d="M240.27,83.75v1.46c0,1.4-1.14,2.54-2.54,2.54h-22.31c-0.94,0-1.71,0.77-1.71,1.71v10.91
		c0,1.55,1.26,2.81,2.81,2.81h17.95c1.7,0,3.07,1.38,3.07,3.07v0.3c0,1.7-1.38,3.07-3.07,3.07h-24.59c-1.55,0-2.81-1.26-2.81-2.81
		v-16.7c0-1.31-1.06-2.38-2.38-2.38h-1.7c-1.31,0-2.38-1.06-2.38-2.38v-1.79c0-1.31,1.06-2.38,2.38-2.38h16.67h18.06
		C239.13,81.21,240.27,82.35,240.27,83.75z"/>
	<path class="st2" d="M240.27,64.14v1.72c0,1.3-1.06,2.36-2.36,2.36h-17.27h-17.56c-1.3,0-2.36-1.06-2.36-2.36v-1.72
		c0-1.3,1.06-2.36,2.36-2.36h8.68h8.16c0.87,0,1.67-0.48,2.08-1.24c2.58-4.77,4.57-8.71,5.98-11.81c0.55-1.2,1.97-1.71,3.16-1.14
		l2.03,0.97c1.25,0.6,1.72,2.13,1.02,3.33c-1.22,2.06-2.49,4.16-3.8,6.3c-0.96,1.57,0.16,3.6,2.01,3.6h5.51
		C239.21,61.78,240.27,62.84,240.27,64.14z"/>
	<path class="st2" d="M223.26,79.45l-1.21,0.52c-1.29,0.56-2.79-0.04-3.34-1.33c-0.84-1.99-1.73-3.84-2.65-5.57
		c-0.56-1.05-0.1-2.35,0.99-2.82l1.9-0.82c0.97-0.42,2.09-0.04,2.59,0.89c0.82,1.49,1.8,3.37,2.96,5.65
		C225.17,77.28,224.59,78.87,223.26,79.45z"/>
	<path class="st2" d="M215.83,59.18l-2.09,1.12c-1.09,0.58-2.46,0.15-3-0.97c-1.24-2.6-2.72-5.23-4.45-7.91
		c-0.7-1.1-0.29-2.56,0.88-3.14l1.81-0.89c0.99-0.49,2.18-0.16,2.8,0.76c2.01,3.01,3.66,5.71,4.94,8.08
		C217.32,57.28,216.9,58.61,215.83,59.18z"/>
	<path class="st2" d="M187.19,95.27l-0.54,0.18c-1.64,0.54-3.39-0.42-3.83-2.08c-0.12-0.44-0.24-0.88-0.36-1.32
		c-8.11,0.86-14.63,1.75-19.54,2.65c-2.14,0.39-4.19-0.97-4.67-3.09l-0.33-1.48c-0.28-1.27,0.05-2.6,0.93-3.56
		c4.17-4.62,8.4-10.5,12.67-17.65c-4.1,0.23-7.48,0.56-10.14,0.97c-1.54,0.24-3.02-0.69-3.49-2.18l-0.73-2.31
		c-0.29-0.91-0.16-1.9,0.37-2.7c4.15-6.23,8.59-15.24,13.33-27.02c0.71-1.77,2.71-2.67,4.51-2.01l0,0c1.98,0.72,2.89,3.01,1.96,4.9
		c-5.12,10.44-9.3,18.5-12.53,24.19c2.41,0,5.86-0.06,10.35-0.19c1.87-3.42,3.74-7.06,5.61-10.91c0.68-1.4,2.37-1.99,3.76-1.28
		l1.39,0.7c1.42,0.72,1.95,2.49,1.15,3.87c-6.35,10.97-13.12,21.78-20.31,32.42c4.49-0.45,9.18-0.94,14.06-1.46
		c-0.73-2.52-1.46-5.01-2.2-7.48c-0.3-1,0.26-2.05,1.26-2.36l2.12-0.66c0.98-0.3,2.02,0.22,2.37,1.18
		c1.88,5.24,3.48,10.25,4.79,15.02C189.57,93.16,188.72,94.77,187.19,95.27z"/>
	<path class="st2" d="M189.69,117.05l-6.25,1.56c-1.09-6.6-2.19-11.97-3.28-16.09c-0.23-0.87,0.3-1.76,1.18-1.97l2.18-0.52
		c0.83-0.2,1.68,0.29,1.92,1.12C187.13,106.89,188.55,112.19,189.69,117.05z"/>
	<path class="st2" d="M176.32,122.11l-2.63,0.47c-1,0.18-1.92-0.55-1.98-1.56c-0.23-4.08-0.72-9.33-1.47-15.77
		c-0.16-1.36,0.79-2.61,2.15-2.82l0.24-0.04c1.38-0.21,2.68,0.74,2.9,2.13c0.98,6.14,1.7,11.39,2.17,15.75
		C177.8,121.15,177.2,121.95,176.32,122.11z"/>
	<path class="st2" d="M162.44,102.83l2.75,0.54c0.86,0.17,1.43,1,1.29,1.86c-1.13,6.69-2.46,12.82-4,18.36
		c-0.28,1.03-1.36,1.61-2.38,1.31l-2.45-0.73c-1.04-0.31-1.62-1.42-1.26-2.44c1.79-5.09,3.17-10.94,4.16-17.54
		C160.67,103.28,161.54,102.65,162.44,102.83z"/>
	<path class="st2" d="M152.19,46.06L152.19,46.06c0,1.89-1.53,3.42-3.41,3.42l-63.21,0c-4.14,0-7.48,3.37-7.44,7.51
		c0.23,23.67,0.47,48.89-10.51,67.04c-1.4,2.32-4.67,2.6-6.5,0.61l-0.06-0.06c-1.29-1.4-1.42-3.48-0.38-5.07
		c5.1-7.82,8.23-17.68,9.4-29.59c-2.1,1.38-4.56,2.92-7.36,4.62c-2.28,1.39-5.25,0.13-5.83-2.47l0,0c-0.39-1.77,0.49-3.57,2.12-4.36
		c4.81-2.32,8.7-4.42,11.66-6.28V47.65c0-2.77,2.24-5.01,5.01-5.01h32c-0.76-1.29-1.52-2.55-2.28-3.79
		c-1.17-1.91-0.46-4.41,1.55-5.42l0,0c1.77-0.88,3.91-0.28,4.96,1.39c1.31,2.09,2.89,4.69,4.76,7.82h32.14
		C150.66,42.64,152.19,44.17,152.19,46.06z"/>
	<path class="st2" d="M150.4,124.76c-0.05,0.1-0.1,0.21-0.14,0.31c-0.74,1.59-2.44,2.49-4.17,2.25
		c-12.15-1.65-22.58-4.97-31.29-9.96c-0.01-0.01-0.03-0.01-0.04,0c-8.77,4.81-19.02,8.34-30.74,10.6c-1.71,0.33-3.44-0.46-4.29-1.98
		l0,0c-1.3-2.36,0.1-5.27,2.74-5.78c9.37-1.8,17.68-4.34,24.92-7.59c0.03-0.01,0.03-0.05,0.01-0.07
		c-6.42-5.01-11.61-11.17-15.56-18.5C91.83,94.01,91.82,94,91.8,94h-3.29c-1.19,0-2.16-0.97-2.16-2.16v-2.33
		c0-1.19,0.97-2.16,2.16-2.16h48.46c2.19,0,3.97,1.78,3.97,3.97v0.88c0,0.79-0.23,1.56-0.66,2.22c-4.76,7.09-10.7,13.15-17.82,18.19
		c-0.03,0.02-0.02,0.06,0.01,0.07c7.14,3.18,15.4,5.31,24.79,6.38C149.97,119.38,151.57,122.28,150.4,124.76z M128.64,94h-26.43
		c-0.81,0-1.27,0.92-0.8,1.58c3.19,4.49,7.03,8.35,11.52,11.57c1.23,0.88,2.88,0.91,4.14,0.08c4.84-3.18,9.05-6.82,12.62-10.94
		C130.47,95.4,129.82,94,128.64,94z"/>
	<path class="st2" d="M141.72,61.95c0,4.6-7.19,13.39-7.92,14.25c-1.13,2.47-2.35,4.62-2.97,5.11c-3.47,2.71-11.57,4.6-16.64,4.6
		c-5.06,0-13.13-1.89-16.63-4.6c-0.62-0.49-1.79-2.59-2.88-5.05c-0.32-0.4-7.96-9.57-7.96-14.31c0.12-4.68,3.14-6.4,6.69-5.88
		c2.57,0.56,4.2,2.96,4.87,4.18c15.73-4.85,16.3-4.47,31.89-0.01c0,0,2.29-3.61,4.87-4.18C138.59,55.56,141.6,57.27,141.72,61.95z
		 M135.87,70.82c2.88-4.32,6.47-9.84,2.15-13.08c-0.71-0.43-1.63-0.58-2.5-0.41c-1.84,0.4-3.25,2.41-3.85,3.56
		c2.71,1.6,4.7,5.09,4.63,7.65C136.24,69.31,136.1,70.07,135.87,70.82z M134.57,68.52c0.1-2.49-2.02-5.67-4.29-6.77
		c-0.04-0.02-0.08-0.04-0.11-0.05c-5-1.29-10.87-3.61-15.95-3.69c-3.68,0-8.16,1.34-11.71,2.41c-1.25,0.38-2.4,0.73-3.39,0.98
		c-2.61,0.67-5.19,4-5.19,6.73c0,3.08,4.03,11.58,4.89,12.27c2.84,2.21,10.18,4.22,15.4,4.22c5.16,0,12.63-2.05,15.4-4.21
		C130.44,79.75,134.5,71.52,134.57,68.52z M96.8,60.9c-0.63-1.16-2.04-3.18-3.87-3.57c-0.87-0.17-1.79-0.02-2.5,0.41
		c-1.28,0.74-1.99,2.24-1.99,4.21c0,2.37,2.25,6.15,4.34,9.13c-0.31-0.97-0.5-1.96-0.56-2.95C92.22,65.41,94.25,62.38,96.8,60.9z"/>
	<path class="st3" d="M130.28,61.75c2.27,1.1,4.39,4.28,4.29,6.77c-0.07,3-4.13,11.23-4.95,11.89c-2.77,2.16-10.24,4.21-15.4,4.21
		c-5.22,0-12.56-2.01-15.4-4.22c-0.86-0.69-4.89-9.19-4.89-12.27c0-2.73,2.58-6.06,5.19-6.73c0.99-0.25,2.14-0.6,3.39-0.98
		c3.55-1.07,8.03-2.41,11.71-2.41c5.08,0.08,10.95,2.4,15.95,3.69C130.2,61.71,130.24,61.73,130.28,61.75z M123.83,66.41
		c1.15-0.19,0.74-1.46-0.31-1.29c-0.06,0-6.44,0.9-9.3,0.9c-2.85,0-9.23-0.89-9.29-0.9c-1.04-0.16-1.48,1.1-0.31,1.3
		c0.27,0.03,6.6,0.9,9.6,0.9C117.23,67.32,123.56,66.45,123.83,66.41z M123.83,70.68c1.15-0.19,0.74-1.46-0.31-1.29
		c-0.06,0-6.44,0.9-9.3,0.9c-2.85,0-9.23-0.89-9.29-0.9c-1.04-0.16-1.48,1.1-0.31,1.3c0.27,0.03,6.6,0.9,9.6,0.9
		C117.23,71.59,123.56,70.72,123.83,70.68z M123.83,74.95c1.15-0.19,0.74-1.46-0.31-1.29c-0.06,0-6.44,0.9-9.3,0.9
		c-2.85,0-9.23-0.89-9.29-0.9c-1.04-0.16-1.48,1.1-0.31,1.3c0.27,0.03,6.6,0.9,9.6,0.9C117.23,75.86,123.56,74.99,123.83,74.95z"/>
	<path class="st2" d="M123.52,65.12c1.05-0.17,1.46,1.1,0.31,1.29c-0.27,0.04-6.6,0.91-9.61,0.91c-3,0-9.33-0.87-9.6-0.9
		c-1.17-0.2-0.73-1.46,0.31-1.3c0.06,0.01,6.44,0.9,9.29,0.9C117.08,66.02,123.46,65.12,123.52,65.12z"/>
	<path class="st2" d="M123.52,69.39c1.05-0.17,1.46,1.1,0.31,1.29c-0.27,0.04-6.6,0.91-9.61,0.91c-3,0-9.33-0.87-9.6-0.9
		c-1.17-0.2-0.73-1.46,0.31-1.3c0.06,0.01,6.44,0.9,9.29,0.9C117.08,70.29,123.46,69.39,123.52,69.39z"/>
	<path class="st2" d="M123.52,73.66c1.05-0.17,1.46,1.1,0.31,1.29c-0.27,0.04-6.6,0.91-9.61,0.91c-3,0-9.33-0.87-9.6-0.9
		c-1.17-0.2-0.73-1.46,0.31-1.3c0.06,0.01,6.44,0.9,9.29,0.9C117.08,74.56,123.46,73.66,123.52,73.66z"/>
	<path class="st2" d="M66.54,73.47L66.54,73.47c-1.88,0.74-4.01-0.27-4.61-2.2c-1.35-4.3-2.77-8.37-4.26-12.21
		c-0.64-1.65,0.17-3.51,1.81-4.18h0c1.66-0.68,3.55,0.09,4.25,1.74c1.57,3.69,3.18,7.83,4.81,12.41
		C69.18,70.81,68.29,72.78,66.54,73.47z"/>
	<path class="st2" d="M297.58,78.35l0.02,0.17c0.18,1.71-0.84,3.32-2.46,3.89c-4.63,1.62-9.21,3.26-13.75,4.9v28.76
		c-0.06,12.06-8.91,10.79-18.13,10.56c-1.86-0.05-3.42-1.44-3.68-3.29c0-0.03-0.01-0.05-0.01-0.08c-0.33-2.41,1.61-4.52,4.03-4.36
		c1.83,0.13,3.72,0.19,5.67,0.19c2.87,0,4.3-1.56,4.3-4.69V90.1c-3.88,1.42-7.73,2.83-11.55,4.25c-2.04,0.76-4.28-0.39-4.87-2.48
		l-0.21-0.77c-0.53-1.92,0.55-3.91,2.45-4.53c4.84-1.56,9.56-3.12,14.18-4.68V59.04h-12.3c-2.05,0-3.71-1.66-3.71-3.71v0
		c0-2.05,1.66-3.71,3.71-3.71h12.3v-15.2c0-1.96,1.59-3.55,3.55-3.55h0.72c1.96,0,3.55,1.59,3.55,3.55v15.2h10.85
		c2.05,0,3.71,1.66,3.71,3.71v0c0,2.05-1.66,3.71-3.71,3.71h-10.85v20.17c3.82-1.31,7.57-2.63,11.26-3.96
		C294.9,74.44,297.32,75.96,297.58,78.35z"/>
	<path class="st4" d="M313.37,67.66c2.57-2.75,7.89-4.32,10.88-2.97c2.05,0.92,2.22,2.86,4.12,3.04c2.09,0.19,3.08-2.05,4.41-1.82
		c1.46,0.25,2.16,3.28,2.24,13.02c0.1,11.17-0.77,12.52-1.58,13.45c-2.27,2.59-4.95,2.86-7.52,6.8c-1.01,1.55-1.51,2.91-2.7,3.02
		c-1.24,0.12-2.42-1.21-4.15-3.56c-3.33-4.51-4.99-6.76-5.93-9.34c-1.1-3.01-1.15-5.84-1.25-11.5
		C311.73,69.6,312.82,68.25,313.37,67.66z"/>
	<path class="st2" d="M325.66,68.95"/>
	<g>
		<path class="st2" d="M341.69,47.65h-4.85c-1.02,0-1.85-0.7-1.85-1.57v-3.96h6.7c1.32-0.04,2.33-0.69,2.26-1.46
			c-0.07-0.71-1.04-1.27-2.26-1.31h-37.01c-1.32,0.04-2.33,0.69-2.26,1.46c0.07,0.71,1.04,1.27,2.26,1.31h6.74v3.83
			c0,0.94-0.89,1.69-2,1.69h-4.7c-1.32,0.04-2.33,0.69-2.26,1.46c0.07,0.71,1.04,1.27,2.26,1.31h2.09c1.56,0,2.82,1.07,2.82,2.39
			v38.85l0,0l0,0c0.01,0.14,0.06,0.27,0.15,0.4c0,0.04,0,0.08,0.04,0.12l0,0l0,0l9.21,12.79c0.33,0.43,1,0.73,1.8,0.8v19.72
			c0.07,0.76,1.2,1.35,2.52,1.31c1.22-0.04,2.2-0.6,2.26-1.31v-19.67c0.79-0.07,1.47-0.37,1.79-0.8l9.21-12.79l0,0l0,0
			c0-0.03,0-0.06,0-0.1c0.09-0.14,0.14-0.29,0.15-0.44l0,0l0,0V52.36c0-1.08,1.03-1.95,2.3-1.95h2.6c1.32-0.04,2.33-0.69,2.26-1.46
			c-0.07-0.71-1.04-1.27-2.26-1.31H341.69z M330.21,42.12v3.96c0,0.87-0.83,1.57-1.85,1.57h-10.19c-1.1,0-2-0.76-2-1.69v-3.83
			H330.21z M317.17,50.4h12.5c1.27,0,2.3,0.87,2.3,1.95v39.04l-8.4,11.7h-0.77l-7.23-10.04h7.77c1.32,0.04,2.45-0.54,2.52-1.31
			c0.07-0.76-0.94-1.41-2.26-1.46c-0.09,0-0.17,0-0.26,0h-9v-1.52h3.78c1.32-0.04,2.33-0.69,2.26-1.46
			c-0.07-0.71-1.04-1.27-2.26-1.31h-3.78c0-0.51,0-1.02,0-1.52c0-0.92,0-1.84,0-2.76c0-0.51,0-1.02,0-1.52h3.78
			c1.32-0.04,2.33-0.69,2.26-1.46c-0.07-0.71-1.04-1.27-2.26-1.31h-3.78V75.9h9c1.32,0.04,2.45-0.54,2.52-1.31
			c0.07-0.76-0.94-1.41-2.26-1.46c-0.09,0-0.17,0-0.26,0h-9v-1.52h3.78c1.32-0.04,2.33-0.69,2.26-1.46
			c-0.07-0.71-1.04-1.27-2.26-1.31h-3.78v-1.52v-2.76v-1.52v-2.76v-1.52v-5.97C314.35,51.47,315.61,50.4,317.17,50.4z"/>
		<line class="st5" x1="299.36" y1="40.65" x2="345.84" y2="40.65"/>
	</g>
</g>
</svg>
