<?xml version="1.0" encoding="utf-8"?>
<!-- Generator: Adobe Illustrator 25.0.1, SVG Export Plug-In . SVG Version: 6.00 Build 0)  -->
<svg version="1.1" id="圖層_1" xmlns="http://www.w3.org/2000/svg" xmlns:xlink="http://www.w3.org/1999/xlink" x="0px" y="0px"
	 viewBox="0 0 384 384" style="enable-background:new 0 0 384 384;" xml:space="preserve">
<style type="text/css">
	.st0{fill:#FFFFFF;stroke:#000000;stroke-miterlimit:10;}
</style>
<path class="st0" d="M368,207.67H16c-8.83,0-16-7.17-16-16s7.17-16,16-16h352c8.83,0,16,7.17,16,16S376.83,207.67,368,207.67z"/>
<path class="st0" d="M368,85H16C7.17,85,0,77.83,0,69s7.17-16,16-16h352c8.83,0,16,7.17,16,16S376.83,85,368,85z"/>
<path class="st0" d="M368,330.33H16c-8.83,0-16-7.17-16-16s7.17-16,16-16h352c8.83,0,16,7.17,16,16S376.83,330.33,368,330.33z"/>
</svg>
